<?xml version="1.0" standalone="no"?>
<!DOCTYPE svg PUBLIC "-//W3C//DTD SVG 20010904//EN"
 "http://www.w3.org/TR/2001/REC-SVG-20010904/DTD/svg10.dtd">
<svg version="1.0" xmlns="http://www.w3.org/2000/svg"
 width="907.000000pt" height="443.000000pt" viewBox="0 0 907.000000 443.000000"
 preserveAspectRatio="xMidYMid meet">
<metadata>
Created by potrace 1.16, written by Peter Selinger 2001-2019
</metadata>
<g transform="translate(0.000000,443.000000) scale(0.100000,-0.100000)"
fill="#000000" stroke="none">
<path d="M1854 4017 c-2 -7 -3 -89 -2 -182 3 -168 3 -170 26 -173 21 -3 22 -1
22 87 0 80 2 92 20 101 11 6 20 17 20 25 0 8 -9 19 -20 25 -17 9 -20 21 -20
70 0 54 -2 60 -20 60 -11 0 -23 -6 -26 -13z"/>
<path d="M2004 4018 c-38 -18 -48 -53 -49 -166 -1 -126 7 -158 46 -177 43 -23
77 -18 110 14 29 29 29 29 29 156 0 127 0 127 -29 156 -31 31 -68 37 -107 17z
m75 -62 c8 -9 11 -49 9 -116 -3 -85 -6 -105 -20 -114 -13 -8 -23 -8 -35 0 -15
9 -18 29 -21 114 -3 106 4 130 38 130 10 0 23 -6 29 -14z"/>
<path d="M2187 4023 c-4 -3 -7 -87 -7 -185 l0 -178 24 0 c24 0 25 1 28 103 2
56 2 139 0 185 -2 71 -5 82 -21 82 -10 0 -21 -3 -24 -7z"/>
<path d="M2402 4022 c-7 -2 -12 -18 -13 -35 0 -18 -4 -41 -9 -52 -7 -16 -9
-13 -9 17 -1 56 -9 68 -46 68 -37 0 -36 2 -51 -132 -6 -57 -6 -58 20 -58 23 0
26 4 27 38 l2 37 6 -35 c6 -33 9 -35 48 -38 40 -3 42 -2 46 30 l3 33 8 -32 c6
-23 14 -33 27 -33 15 0 19 7 19 36 0 24 4 34 13 32 8 -3 13 -33 15 -92 l3 -87
-83 3 -83 3 3 28 c3 24 0 27 -28 27 l-31 0 3 -57 3 -58 130 0 130 0 0 180 c0
179 0 180 -22 183 -20 3 -23 -1 -23 -32 0 -29 -4 -36 -20 -36 -15 0 -20 7 -20
29 0 24 -5 29 -28 33 -16 2 -34 2 -40 0z"/>
<path d="M3565 4018 c-3 -7 -6 -78 -7 -158 l-3 -145 -70 0 -70 0 -3 38 c-3 32
-7 37 -28 37 -24 0 -25 -2 -22 -62 l3 -63 125 0 125 0 3 113 c2 90 5 112 17
112 19 0 20 46 1 57 -8 4 -16 24 -18 43 -2 27 -8 36 -26 38 -12 2 -24 -3 -27
-10z"/>
<path d="M4004 4017 c-3 -8 -4 -41 -2 -73 l3 -59 125 0 125 0 0 25 c0 25 -1
25 -100 30 l-100 5 -5 40 c-5 41 -34 62 -46 32z"/>
<path d="M4460 4017 c-54 -28 -64 -129 -17 -162 46 -32 97 -18 144 39 7 8 21
12 33 9 17 -5 20 -13 20 -64 l0 -59 -74 0 c-64 0 -75 3 -88 22 -10 14 -20 19
-32 15 -14 -6 -16 -18 -14 -79 l3 -73 130 0 130 0 0 180 0 180 -25 0 c-21 0
-26 -5 -28 -32 -4 -43 -36 -44 -71 -3 -30 35 -75 46 -111 27z"/>
<path d="M5176 4022 c-9 -2 -16 -13 -16 -28 0 -22 4 -24 45 -24 30 0 45 -4 45
-13 0 -7 -20 -73 -45 -146 -24 -74 -42 -138 -39 -142 3 -5 14 -9 25 -9 14 0
26 14 41 48 l21 47 11 -35 c6 -19 15 -41 19 -47 9 -14 43 -18 50 -5 3 4 -8 48
-24 97 l-29 90 20 59 c33 99 31 104 -44 108 -35 1 -71 2 -80 0z"/>
<path d="M5384 4017 c-2 -7 -3 -89 -2 -182 3 -168 3 -170 26 -173 21 -3 22 -1
22 88 0 75 3 92 16 97 10 4 22 -1 29 -11 11 -14 31 -16 156 -14 136 3 144 4
144 23 0 18 -8 20 -63 23 -73 3 -82 24 -11 26 40 1 44 3 44 25 0 24 -2 25 -90
25 -73 1 -90 4 -90 16 0 12 17 15 90 16 83 2 90 3 93 23 3 20 0 21 -112 21
-64 0 -119 0 -123 0 -5 0 -8 -28 -8 -62 l0 -63 48 -3 c69 -4 58 -20 -18 -24
-56 -3 -65 -1 -65 14 0 9 -9 20 -20 23 -17 5 -20 15 -20 66 0 53 -2 59 -20 59
-11 0 -23 -6 -26 -13z"/>
<path d="M6037 4024 c-4 -4 -7 -74 -7 -156 l0 -148 -50 0 c-43 0 -50 3 -50 19
0 11 9 26 19 33 47 33 52 122 8 153 -27 19 -86 19 -114 0 -12 -8 -24 -29 -28
-45 -9 -39 11 -97 36 -105 12 -4 19 -15 19 -31 0 -21 -5 -24 -35 -24 -32 0
-35 -2 -35 -30 l0 -30 140 0 140 0 0 91 c0 82 2 91 20 96 26 7 26 39 0 53 -15
8 -20 23 -22 67 -2 43 -7 59 -18 61 -9 1 -19 0 -23 -4z"/>
<path d="M6900 4022 c-6 -2 -10 -15 -10 -28 0 -24 1 -24 100 -24 l101 0 -7
-92 c-3 -51 -9 -109 -13 -128 l-7 -35 -84 -2 c-47 -1 -91 -2 -98 -2 -8 -1 -12
-10 -10 -23 3 -23 6 -23 151 -26 l147 -3 0 25 c0 15 -7 25 -20 29 -24 6 -24
14 -9 181 5 65 8 120 6 123 -6 5 -233 10 -247 5z"/>
<path d="M7200 4022 c-6 -2 -10 -12 -10 -22 0 -15 9 -19 48 -22 60 -4 61 -21
2 -28 l-45 -5 -3 -57 c-3 -50 -1 -58 15 -59 116 -6 143 1 129 36 -4 10 -19 15
-51 15 -60 0 -58 18 3 22 l47 3 3 57 3 56 -66 4 c-36 1 -70 2 -75 0z"/>
<path d="M7360 3925 c0 -105 0 -106 23 -103 18 2 23 10 25 41 2 20 7 37 12 37
5 0 10 -17 12 -37 2 -31 7 -39 26 -41 22 -3 22 -2 22 103 0 105 0 106 -22 103
-18 -2 -24 -11 -26 -35 -2 -18 -7 -33 -12 -33 -5 0 -10 15 -12 33 -2 24 -8 33
-25 35 -23 3 -23 2 -23 -103z"/>
<path d="M1630 3995 c0 -14 5 -25 10 -25 6 0 10 -48 10 -125 0 -77 -4 -125
-10 -125 -5 0 -10 -13 -10 -30 l0 -30 94 0 c74 0 95 3 100 15 6 18 -2 45 -15
45 -5 0 -9 54 -9 121 0 95 3 124 15 136 30 29 11 38 -88 41 l-97 3 0 -26z"/>
<path d="M2621 3994 c-15 -19 -21 -41 -21 -74 0 -33 6 -55 21 -74 20 -25 24
-26 119 -26 124 0 140 12 140 102 0 88 -14 98 -139 98 -96 0 -100 -1 -120 -26z
m197 -36 c19 -19 15 -66 -7 -78 -11 -5 -44 -10 -75 -10 -75 0 -103 29 -76 81
9 16 22 19 78 19 40 0 73 -5 80 -12z"/>
<path d="M2940 3995 l0 -25 100 0 c93 0 100 -1 100 -20 0 -19 -7 -20 -100 -20
l-100 0 0 -75 0 -75 50 0 c49 0 50 -1 50 -30 0 -29 -1 -29 -62 -32 -60 -3 -63
-4 -63 -28 l0 -25 148 -3 147 -3 0 31 0 30 -60 0 -60 0 0 30 c0 29 1 30 51 30
49 0 50 1 47 28 l-3 27 -98 3 c-87 2 -98 5 -95 20 3 14 18 17 101 20 l97 3 0
69 0 70 -125 0 -125 0 0 -25z"/>
<path d="M3350 3925 l0 -95 85 0 85 0 0 95 0 95 -85 0 -85 0 0 -95z"/>
<path d="M3680 3890 l0 -130 131 0 c130 0 130 0 127 23 -3 21 -9 22 -98 27
l-95 5 -3 77 -3 77 98 3 c93 3 98 4 101 26 3 22 3 22 -127 22 l-131 0 0 -130z"/>
<path d="M4752 3933 l3 -88 125 0 125 0 3 88 3 87 -131 0 -131 0 3 -87z"/>
<path d="M6240 3996 c0 -18 6 -25 23 -28 19 -3 22 -10 25 -55 3 -47 1 -52 -20
-55 -17 -2 -23 -10 -23 -28 l0 -25 133 -3 132 -3 0 31 c0 23 -4 30 -20 30 -18
0 -20 7 -20 55 0 48 2 55 20 55 15 0 20 7 20 25 l0 25 -135 0 -135 0 0 -24z"/>
<path d="M6570 3995 c0 -24 1 -24 103 -27 83 -2 102 -6 102 -18 0 -12 -20 -16
-100 -20 l-100 -5 0 -70 0 -70 48 -3 c45 -3 47 -5 47 -32 0 -28 -1 -29 -57
-32 -54 -3 -58 -5 -58 -28 l0 -25 145 0 145 0 0 25 c0 23 -4 25 -60 30 -56 5
-60 7 -60 30 0 23 4 25 53 28 51 3 53 4 50 30 l-3 27 -103 3 c-91 2 -103 5
-100 20 3 14 19 18 103 22 l100 5 3 68 3 67 -131 0 -130 0 0 -25z"/>
<path d="M1128 3853 c-23 -28 6 -33 193 -33 182 0 189 1 189 20 0 12 -7 20
-17 20 -223 6 -356 3 -365 -7z"/>
<path d="M7620 3862 c-6 -2 -10 -12 -10 -23 0 -18 9 -19 191 -19 186 0 190 0
187 21 -3 19 -10 20 -181 22 -97 1 -182 1 -187 -1z"/>
<path d="M3980 3821 c0 -10 7 -24 15 -31 10 -8 15 -31 15 -72 l0 -59 128 3
127 3 0 25 c0 25 -1 25 -102 28 l-103 3 0 34 0 35 110 0 110 0 0 25 0 25 -150
0 c-140 0 -150 -1 -150 -19z"/>
<path d="M4740 3802 c-5 -2 -10 -15 -10 -28 0 -23 3 -24 59 -24 l60 0 3 -42
c3 -38 6 -43 28 -43 23 0 25 4 25 40 l0 40 60 5 c52 4 60 8 63 27 2 17 -3 24
-20 27 -24 6 -251 3 -268 -2z"/>
<path d="M5516 3779 c-29 -23 -35 -63 -12 -95 12 -16 29 -20 114 -22 91 -3
102 -2 121 17 21 21 28 66 13 87 -16 24 -54 34 -130 34 -65 0 -84 -4 -106 -21z"/>
<path d="M7220 3730 l0 -70 130 0 130 0 0 70 0 70 -130 0 -130 0 0 -70z"/>
<path d="M2592 3693 l3 -28 145 0 145 0 3 28 3 27 -151 0 -151 0 3 -27z"/>
<path d="M3663 3703 c-3 -7 -3 -20 1 -28 5 -13 28 -15 148 -13 142 3 143 3
143 26 0 23 -1 23 -144 25 -107 2 -145 -1 -148 -10z"/>
<path d="M6247 3712 c-10 -2 -17 -13 -17 -28 l0 -25 148 3 c144 3 147 3 150
26 2 12 0 22 -5 22 -48 3 -264 4 -276 2z"/>
<path d="M6652 3144 c-19 -13 -22 -24 -22 -88 0 -68 -2 -75 -25 -90 -34 -22
-65 -74 -65 -108 l0 -28 155 0 c129 0 157 3 161 15 11 28 -7 69 -47 107 -38
36 -39 40 -39 103 0 52 -4 69 -20 85 -24 24 -67 26 -98 4z m78 -29 c12 -14 10
-88 -4 -130 -5 -16 1 -23 34 -38 34 -16 70 -58 70 -82 0 -3 -58 -5 -130 -5
-71 0 -130 3 -130 8 0 23 43 72 74 83 35 13 46 32 26 44 -14 9 -12 109 2 123
16 16 43 15 58 -3z"/>
<path d="M7852 2738 c-9 -9 -12 -73 -12 -224 l0 -213 -32 -3 c-30 -3 -33 -6
-36 -41 -6 -70 -26 -67 444 -67 l424 0 15 24 c9 14 15 37 13 53 -2 23 -8 29
-35 31 l-33 3 0 205 c0 122 -4 213 -10 225 -10 18 -25 19 -368 19 -265 0 -361
-3 -370 -12z m706 -16 c9 -7 12 -56 10 -213 l-3 -204 -347 -3 c-327 -2 -348
-1 -349 15 0 10 0 103 0 207 0 143 3 191 13 198 17 10 659 10 676 0z m80 -474
l-3 -23 -416 -3 c-374 -2 -417 -1 -423 14 -3 9 -4 20 0 25 3 5 184 9 425 9
l420 0 -3 -22z"/>
<path d="M7897 2693 c-4 -3 -7 -87 -7 -185 l0 -178 325 0 325 0 -2 183 -3 182
-316 3 c-173 1 -318 -1 -322 -5z m298 -43 c-34 -13 -46 -36 -49 -89 -1 -40 -7
-56 -30 -80 -17 -18 -30 -44 -33 -70 l-6 -41 136 0 c82 0 138 4 142 10 12 20
-6 67 -39 100 -29 30 -32 39 -29 79 4 48 -6 69 -42 89 -15 8 13 10 120 9 l140
-2 1 -147 1 -148 -291 0 -291 0 3 150 3 150 142 -1 c85 0 134 -4 122 -9z m43
-42 c15 -15 16 -80 1 -95 -13 -13 -4 -33 15 -33 7 0 22 -10 33 -22 42 -47 41
-48 -67 -48 -90 0 -101 2 -98 17 2 10 19 28 38 41 21 14 34 30 32 40 -2 10 -6
29 -9 43 -9 49 26 86 55 57z"/>
<path d="M6016 2724 c-3 -9 -6 -109 -6 -224 0 -115 3 -215 6 -224 5 -12 20
-16 59 -16 52 0 54 -1 78 -43 91 -154 327 -91 327 88 0 59 -31 119 -75 148
l-35 22 0 117 c0 64 -3 123 -6 132 -5 14 -30 16 -174 16 -144 0 -169 -2 -174
-16z m283 -59 c41 -45 42 -46 39 -113 l-3 -67 -45 -8 c-25 -4 -76 -11 -114
-15 -75 -8 -106 -32 -42 -32 20 0 36 -3 36 -7 0 -14 -34 -43 -52 -43 -10 0
-18 -4 -18 -10 0 -5 7 -10 15 -10 10 0 15 -11 15 -35 0 -35 0 -35 -45 -35
l-45 0 0 203 c0 112 3 207 7 210 3 4 52 7 108 7 l102 0 42 -45z m68 -225 c78
-35 110 -119 73 -194 -38 -79 -125 -108 -206 -70 -70 34 -98 140 -54 212 21
34 87 72 125 72 11 0 39 -9 62 -20z"/>
<path d="M6271 2387 c-5 -13 -17 -27 -25 -30 -12 -5 -16 -21 -16 -72 l0 -65
75 0 75 0 0 70 c0 50 -4 70 -13 70 -7 0 -17 10 -22 23 -15 33 -62 36 -74 4z"/>
<path d="M997 2653 c-4 -3 -7 -150 -7 -325 l0 -318 60 0 60 0 0 149 0 150 38
3 c30 2 38 7 40 27 2 12 1 34 -2 47 -5 20 -13 24 -41 24 l-35 0 0 125 0 125
-53 0 c-30 0 -57 -3 -60 -7z"/>
<path d="M1622 2433 l3 -228 55 0 55 0 3 102 3 102 32 3 c31 3 32 5 35 51 l3
47 -35 0 -35 0 -3 73 -3 72 -58 3 -57 3 2 -228z"/>
<path d="M2280 2335 l0 -325 60 0 60 0 -2 323 -3 322 -57 3 -58 3 0 -326z"/>
<path d="M1225 2637 c-3 -7 -4 -91 -3 -187 l3 -175 165 0 165 0 0 185 0 185
-163 3 c-127 2 -164 0 -167 -11z m213 -174 l-3 -98 -45 0 -45 0 -3 84 c-2 46
-1 90 2 98 3 8 22 13 51 13 l46 0 -3 -97z"/>
<path d="M605 2617 c-3 -7 -4 -125 -3 -262 l3 -250 170 0 170 0 3 42 3 42
-113 3 -113 3 -3 218 -2 217 -56 0 c-35 0 -56 -5 -59 -13z"/>
<path d="M1945 2622 c-5 -4 -25 -24 -43 -44 -33 -35 -34 -38 -34 -123 l0 -87
43 -44 43 -44 87 0 86 0 41 49 c42 49 42 50 42 131 l0 80 -41 45 -42 45 -86 0
c-47 0 -90 -4 -96 -8z m129 -101 c13 -14 16 -33 14 -72 -3 -46 -7 -55 -29 -68
-24 -13 -29 -13 -53 2 -22 15 -26 24 -26 69 0 79 51 116 94 69z"/>
<path d="M5094 2466 c-3 -7 -4 -42 -2 -77 l3 -64 244 -3 c164 -1 248 1 255 8
12 12 17 68 10 118 l-5 32 -250 0 c-201 0 -251 -3 -255 -14z m476 -66 l0 -50
-225 0 -225 0 0 50 0 50 225 0 225 0 0 -50z"/>
<path d="M1276 2212 c-3 -3 -6 -41 -6 -84 0 -92 -8 -86 145 -118 l100 -20 107
24 c59 13 112 27 118 31 12 7 14 81 2 89 -4 2 -57 -7 -117 -21 -102 -24 -113
-25 -169 -12 l-61 14 -5 49 -5 49 -52 3 c-28 1 -54 0 -57 -4z"/>
<path d="M1836 2204 c-10 -27 -7 -61 8 -73 9 -8 73 -11 207 -9 l194 3 0 45 0
45 -201 3 c-177 2 -202 0 -208 -14z"/>
<path d="M5138 1658 c-3 -21 -9 -23 -81 -26 l-78 -3 3 -52 3 -52 230 0 230 0
3 52 3 52 -78 3 c-72 3 -78 5 -81 26 -3 21 -8 22 -77 22 -69 0 -74 -1 -77 -22z"/>
<path d="M1970 1240 l0 -430 74 0 c58 0 75 3 80 16 3 9 6 101 6 205 l0 189 45
0 45 0 0 59 0 60 -46 3 -46 3 -1 160 -2 160 -77 3 -78 3 0 -431z"/>
<path d="M3687 1663 c-4 -3 -7 -143 -7 -309 l0 -303 -82 -3 -83 -3 0 -50 0
-50 82 -3 82 -3 3 -62 3 -62 75 0 75 0 3 428 2 427 -73 0 c-41 0 -77 -3 -80
-7z"/>
<path d="M5520 1360 l0 -310 75 0 74 0 3 148 3 147 48 3 47 3 0 59 0 59 -47 3
-48 3 -3 98 -3 97 -74 0 -75 0 0 -310z"/>
<path d="M6410 1642 c0 -40 -17 -52 -73 -52 l-48 0 3 -52 3 -53 55 -5 c53 -5
55 -6 55 -35 0 -29 -2 -30 -55 -35 l-55 -5 -3 -57 -3 -58 48 0 c46 0 76 -10
74 -24 -1 -3 -1 -20 -1 -36 l0 -31 73 3 72 3 3 233 2 232 -75 0 -75 0 0 -28z"/>
<path d="M963 1652 l-63 -3 0 -93 c0 -104 6 -92 -102 -196 -59 -55 -87 -75
-115 -79 -39 -7 -39 -5 -34 -93 1 -28 1 -28 75 -28 l73 0 83 78 c45 42 86 78
91 80 5 2 48 -33 96 -77 l88 -81 78 0 77 0 0 60 0 60 -35 0 c-30 0 -47 11
-112 73 -42 39 -84 80 -92 90 -18 20 -17 19 -20 128 -1 52 -5 78 -13 80 -7 2
-41 3 -75 1z"/>
<path d="M5870 1601 c0 -44 4 -60 16 -65 9 -3 63 -6 120 -6 l104 0 0 -35 c0
-28 -11 -49 -52 -98 l-51 -62 -81 -5 -81 -5 -3 -57 -3 -58 124 0 125 0 85 103
86 102 1 123 0 122 -195 0 -195 0 0 -59z"/>
<path d="M2353 1642 c-22 -3 -22 -4 -25 -248 -2 -135 -1 -248 1 -250 2 -2 148
-4 323 -4 l319 0 -3 58 -3 57 -243 3 -243 2 3 33 3 32 228 3 227 2 0 60 0 60
-227 2 -228 3 -3 32 -3 33 238 2 238 3 3 58 c3 49 1 57 -15 58 -74 2 -573 3
-590 1z"/>
<path d="M3977 1642 c-14 -3 -17 -15 -17 -63 l0 -59 240 0 241 0 -3 -57 -3
-58 -232 -3 -233 -2 0 -60 0 -60 235 0 235 0 0 -85 c0 -47 1 -85 3 -85 37 -7
114 -10 133 -6 l24 6 0 265 c0 205 -3 265 -12 265 -109 3 -599 4 -611 2z"/>
<path d="M1456 1631 c-3 -4 -6 -160 -6 -347 l-2 -339 212 -5 c117 -3 216 -2
221 1 5 3 8 150 7 350 l-3 344 -212 2 c-117 1 -214 -1 -217 -6z m275 -128 c3
-34 4 -421 1 -430 -3 -9 -26 -13 -68 -13 l-64 0 0 225 0 225 65 0 c36 0 65 -3
66 -7z"/>
<path d="M3191 1589 l-61 -51 0 -82 0 -83 54 -52 55 -51 118 0 119 0 56 58 56
57 1 68 2 68 -54 56 -55 57 -115 3 -115 3 -61 -51z m216 -91 c47 -44 17 -108
-51 -108 -36 0 -76 35 -76 66 0 28 44 64 78 64 14 0 36 -10 49 -22z"/>
<path d="M5052 1467 c-38 -39 -42 -47 -42 -93 0 -46 4 -53 43 -92 24 -24 52
-42 65 -42 15 0 22 -6 22 -20 0 -17 -8 -19 -82 -22 l-83 -3 -3 -58 -3 -57 253
2 253 3 0 55 0 55 -92 3 c-85 2 -93 4 -93 22 0 14 7 20 22 20 13 0 41 18 65
42 39 39 43 46 43 92 0 46 -4 54 -42 93 l-42 43 -121 0 -121 0 -42 -43z"/>
<path d="M7235 1488 c-3 -8 -4 -110 -3 -228 l3 -215 55 0 55 0 3 102 3 102 37
3 c37 3 37 3 37 48 0 45 0 45 -37 48 l-37 3 -3 72 -3 72 -53 3 c-36 2 -54 -1
-57 -10z"/>
<path d="M8520 1176 c0 -179 3 -327 8 -329 4 -2 28 -2 55 1 l47 4 0 324 0 324
-55 0 -55 0 0 -324z"/>
<path d="M6847 1483 c-4 -3 -7 -89 -7 -190 l0 -183 165 0 165 0 0 190 0 190
-158 0 c-87 0 -162 -3 -165 -7z m197 -89 c13 -5 16 -23 16 -95 0 -98 -4 -103
-75 -96 l-30 2 -3 84 c-2 47 -1 90 2 98 6 13 62 18 90 7z"/>
<path d="M7504 1467 c-3 -8 -4 -54 -2 -103 l3 -89 243 -3 242 -2 0 40 0 40
-182 2 c-175 3 -183 4 -183 23 0 19 8 20 178 23 l177 2 0 40 0 40 -235 0
c-187 0 -237 -3 -241 -13z"/>
<path d="M8120 1425 c0 -52 2 -54 125 -57 l80 -3 3 -108 c3 -117 -3 -136 -63
-199 -23 -25 -33 -28 -90 -28 l-65 0 0 -45 0 -45 103 0 102 0 68 81 67 81 0
168 c0 93 -3 175 -6 184 -5 14 -29 16 -165 16 l-159 0 0 -45z"/>
<path d="M7450 1200 l0 -40 295 0 295 0 0 40 0 40 -295 0 -295 0 0 -40z"/>
<path d="M3084 1206 c-3 -7 -4 -33 -2 -57 l3 -44 95 -5 95 -5 2 -110 c1 -60 3
-118 3 -128 0 -16 8 -18 73 -15 l72 3 3 127 3 127 97 3 97 3 3 58 3 57 -271 0
c-221 0 -272 -3 -276 -14z"/>
<path d="M5983 1114 l-53 -46 0 -83 0 -83 54 -46 54 -46 205 0 205 0 56 46 56
46 0 83 0 83 -54 46 -53 46 -209 0 -209 0 -52 -46z m407 -94 c11 -11 20 -27
20 -35 0 -8 -9 -24 -20 -35 -18 -18 -33 -20 -143 -20 -135 0 -167 11 -167 55
0 44 32 55 167 55 110 0 125 -2 143 -20z"/>
<path d="M7503 1123 c-3 -6 -3 -22 -1 -35 3 -23 3 -23 186 -26 107 -1 182 -6
182 -12 0 -6 -75 -11 -182 -12 l-183 -3 -3 -69 c-2 -38 1 -73 5 -77 4 -4 60
-19 123 -34 l114 -25 106 20 c145 29 140 27 140 61 0 40 -19 45 -104 30 -39
-7 -89 -15 -112 -18 -45 -6 -154 14 -154 27 0 5 82 11 182 12 l182 3 2 78 c1
55 -2 80 -11 84 -7 2 -115 5 -240 6 -167 2 -229 -1 -232 -10z"/>
<path d="M6892 1048 c-14 -14 -17 -154 -3 -163 6 -3 61 -17 123 -30 l113 -25
112 25 c62 14 115 25 118 25 3 0 5 23 5 51 0 43 -2 50 -17 45 -10 -2 -62 -14
-117 -26 -88 -20 -105 -21 -157 -10 l-59 13 0 47 c0 34 -4 50 -16 54 -27 10
-89 7 -102 -6z"/>
<path d="M587 1043 c-4 -3 -7 -32 -7 -64 l0 -57 118 -27 c64 -15 153 -35 196
-45 l80 -18 150 33 c83 18 172 39 199 45 l47 12 0 64 c0 35 -4 64 -9 64 -5 0
-70 -14 -143 -31 -251 -58 -229 -57 -435 -10 -203 46 -187 43 -196 34z"/>
<path d="M2257 1043 c-4 -3 -7 -32 -7 -64 l0 -57 118 -27 c64 -15 153 -35 197
-45 l80 -18 175 39 c96 21 185 41 198 44 20 5 22 11 22 65 0 32 -4 61 -9 64
-5 4 -69 -8 -143 -25 -253 -58 -229 -57 -435 -10 -203 46 -187 43 -196 34z"/>
<path d="M3887 1043 c-6 -6 -10 -123 -4 -123 1 0 90 -20 198 -45 l197 -44 78
18 c44 10 132 31 197 46 l117 27 0 64 c0 35 -4 64 -9 64 -6 0 -90 -18 -187
-40 -98 -22 -187 -40 -199 -40 -12 0 -101 18 -199 40 -202 46 -181 42 -189 33z"/>
<path d="M5062 948 l3 -93 155 -33 155 -33 120 26 c66 15 137 31 158 36 l37
10 0 59 c0 73 9 72 -177 29 l-136 -32 -79 18 -78 18 0 44 0 43 -80 0 -81 0 3
-92z"/>
</g>
</svg>
